<?xml version="1.0" encoding="utf-8"?>
<svg version="1.1" xmlns:xlink="http://www.w3.org/1999/xlink" width="377px" height="142px" xmlns="http://www.w3.org/2000/svg">
  <g>
    <path d="M 0 0  L 377 0  L 377 142  L 0 142  L 0 0  " fill-rule="nonzero" fill="#cccccc" stroke="none" />
    <path d="M 10 10  L 367 10  L 367 132  L 10 132  L 10 10  " fill-rule="nonzero" fill="#ffffff" stroke="none" />
    <path d="M 206.69 42.6  C 200.726 42.6  196.04 37.914  196.04 31.95  C 196.04 25.986  200.726 21.3  206.69 21.3  C 212.654 21.3  217.34 25.986  217.34 31.95  C 217.34 37.914  212.654 42.6  206.69 42.6  " fill-rule="nonzero" fill="#cccccc" stroke="none" />
    <path d="M 14 129  L 14 65.75  L 101.5 37  L 224 103.010610079576  L 294 54.25  L 364 103.010610079576  L 364 129  L 14 129  " fill-rule="nonzero" fill="#169bd5" stroke="none" />
  </g>
</svg>